<svg xmlns="http://www.w3.org/2000/svg" viewBox="0 0 360 100" role="img" aria-label="Girl Rising">
  <!-- Golden bird above the R in RISING -->
  <g transform="translate(228, 2) scale(0.22)" fill="#E8A614">
    <path d="M60 0C50 15 30 30 0 45C15 42 35 44 48 50C32 58 15 72 8 85C28 72 48 68 62 72C55 82 50 94 50 108C58 94 70 82 82 78C78 88 75 100 78 112C84 98 96 86 108 80C114 90 118 102 114 114C120 98 120 84 114 70C128 68 146 72 164 85C156 72 142 58 126 50C138 44 155 42 168 45C142 30 120 14 114 0C108 16 96 26 88 28C82 26 70 16 60 0Z"/>
  </g>
  <text x="180" y="82" text-anchor="middle" font-family="'Arial Black', 'Helvetica Neue', sans-serif" font-size="56" font-weight="900" fill="#8B1A1A" letter-spacing="6">GIRL RISING</text>
</svg>
