<svg width="150" height="25" viewBox="0 0 150 25" fill="none" xmlns="http://www.w3.org/2000/svg">
<g clip-path="url(#clip0_474_2790)">
<path d="M51.8406 17.7258C49.7931 17.7258 48.1581 17.1302 46.9341 15.9407C45.7101 14.7512 45.0996 13.2077 45.0996 11.3102C45.0996 9.42925 45.7191 7.88125 46.9596 6.66625C48.2001 5.45125 49.8261 4.84375 51.8406 4.84375C53.8716 4.84375 55.5066 5.45125 56.7456 6.66625C57.9861 7.88125 58.6056 9.42925 58.6056 11.3102C58.6056 13.2077 57.9936 14.7512 56.7711 15.9407C55.5486 17.1302 53.9046 17.7258 51.8406 17.7258ZM51.8406 14.5308C52.8726 14.5308 53.6511 14.2187 54.1746 13.5947C54.6981 12.9707 54.9606 12.2087 54.9606 11.3102C54.9606 10.4447 54.6936 9.68725 54.1611 9.03775C53.6286 8.38825 52.8546 8.06425 51.8391 8.06425C50.8401 8.06425 50.0751 8.38825 49.5426 9.03775C49.0101 9.68725 48.7431 10.4447 48.7431 11.3102C48.7431 12.1757 49.0056 12.9287 49.5291 13.5692C50.0556 14.2097 50.8251 14.5308 51.8406 14.5308Z" fill="#1A1A2E"/>
<path d="M66.8738 17.7258C64.8263 17.7258 63.1913 17.1302 61.9673 15.9407C60.7433 14.7512 60.1328 13.2077 60.1328 11.3102C60.1328 9.42925 60.7523 7.88125 61.9928 6.66625C63.2333 5.45125 64.8593 4.84375 66.8738 4.84375C68.9048 4.84375 70.5398 5.45125 71.7788 6.66625C73.0193 7.88125 73.6388 9.42925 73.6388 11.3102C73.6388 13.2077 73.0268 14.7512 71.8043 15.9407C70.5818 17.1302 68.9378 17.7258 66.8738 17.7258ZM66.8738 14.5308C67.9058 14.5308 68.6843 14.2187 69.2078 13.5947C69.7313 12.9707 69.9938 12.2087 69.9938 11.3102C69.9938 10.4447 69.7268 9.68725 69.1943 9.03775C68.6618 8.38825 67.8878 8.06425 66.8723 8.06425C65.8733 8.06425 65.1083 8.38825 64.5758 9.03775C64.0433 9.68725 63.7763 10.4447 63.7763 11.3102C63.7763 12.1757 64.0388 12.9287 64.5623 13.5692C65.0888 14.2097 65.8583 14.5308 66.8738 14.5308Z" fill="#1A1A2E"/>
<path d="M85.2137 0H88.8332V17.451H85.6127L85.3877 15.8775C84.4562 17.076 83.0912 17.6745 81.2927 17.6745C79.4777 17.6745 78.0092 17.088 76.8857 15.915C75.7622 14.742 75.2012 13.1985 75.2012 11.2845C75.2012 9.321 75.7667 7.761 76.8992 6.603C78.0302 5.4465 79.5122 4.8675 81.3437 4.8675C82.9742 4.8675 84.2642 5.4495 85.2137 6.615V0ZM81.8432 8.1135C80.9267 8.1135 80.1947 8.409 79.6457 9C79.0967 9.591 78.8222 10.353 78.8222 11.2845C78.8222 12.1995 79.0922 12.957 79.6337 13.557C80.1737 14.1555 80.9102 14.4555 81.8432 14.4555C82.7582 14.4555 83.5397 14.1975 84.1892 13.6815C84.8387 13.1655 85.1627 12.3675 85.1627 11.2845C85.1627 10.3035 84.8297 9.528 84.1637 8.9625C83.4992 8.397 82.7252 8.1135 81.8432 8.1135Z" fill="#1A1A2E"/>
<path d="M100.788 6.36613L99.0146 8.61313C98.1656 8.01463 97.1921 7.71463 96.0941 7.71463C95.5286 7.71463 95.0906 7.80613 94.7831 7.98913C94.4741 8.17213 94.3211 8.42263 94.3211 8.73763C94.3211 9.42013 94.9286 9.77713 96.1436 9.81163C96.6926 9.82813 97.1876 9.86563 97.6286 9.92413C98.0696 9.98263 98.5436 10.0996 99.0521 10.2736C99.5591 10.4491 99.9791 10.6696 100.314 10.9351C100.647 11.2006 100.929 11.5801 101.163 12.0706C101.395 12.5626 101.512 13.1311 101.512 13.7806C101.529 14.9131 101.088 15.8866 100.189 16.7011C99.2906 17.5171 97.9346 17.9251 96.1196 17.9251C93.9386 17.9251 92.0081 17.2261 90.3281 15.8281L91.8761 13.2811C93.0911 14.2801 94.5221 14.7961 96.1706 14.8291C96.7031 14.8456 97.1486 14.7541 97.5056 14.5546C97.8626 14.3551 98.0336 14.0971 98.0171 13.7806C98.0171 13.0981 97.3181 12.7321 95.9201 12.6811C95.3036 12.6481 94.7096 12.5611 94.1351 12.4186C93.5606 12.2776 93.0116 12.0616 92.4881 11.7691C91.9646 11.4781 91.5431 11.0701 91.2266 10.5451C90.9101 10.0216 90.7526 9.41713 90.7526 8.73463C90.7526 7.42063 91.2686 6.42913 92.3006 5.76463C93.3326 5.10013 94.5896 4.76562 96.0701 4.76562C97.9826 4.76863 99.5546 5.30113 100.788 6.36613Z" fill="#1A1A2E"/>
<path d="M103.346 2.14802L106.941 1.74902V5.19452H110.063V8.19002H106.917V12.834C106.917 13.932 107.382 14.4825 108.315 14.4825C108.914 14.4825 109.413 14.382 109.814 14.1825L110.637 17.178C109.821 17.4945 108.956 17.6775 108.041 17.727C106.593 17.793 105.449 17.448 104.607 16.6905C103.767 15.933 103.347 14.6475 103.347 12.8325V8.18852V5.19302V2.14802H103.346Z" fill="#1A1A2E"/>
<path d="M121.127 6.54165L121.252 5.11814H124.622V17.4511H121.376L121.177 15.9031C120.793 16.5031 120.241 16.9516 119.516 17.2516C118.792 17.5516 118.081 17.7091 117.382 17.7256C115.501 17.7421 113.969 17.1721 112.789 16.0156C111.607 14.8591 111.016 13.2811 111.016 11.2846C111.016 9.28665 111.628 7.70715 112.85 6.54165C114.074 5.37765 115.618 4.81065 117.481 4.84365C118.28 4.84365 119.008 4.99365 119.665 5.29365C120.325 5.59215 120.811 6.00915 121.127 6.54165ZM117.857 8.01464C116.926 8.01464 116.15 8.31014 115.535 8.90114C114.919 9.49214 114.611 10.2871 114.611 11.2861C114.611 12.2851 114.919 13.0756 115.535 13.6576C116.15 14.2411 116.924 14.5321 117.857 14.5321C118.822 14.5321 119.609 14.2171 120.217 13.5841C120.824 12.9511 121.129 12.2281 121.129 11.4121C121.129 10.4626 120.841 9.66014 120.268 9.00314C119.692 8.34314 118.889 8.01464 117.857 8.01464Z" fill="#1A1A2E"/>
<path d="M135.484 13.4822L137.756 15.8297C136.474 17.0942 134.869 17.7273 132.938 17.7273C131.008 17.7273 129.401 17.1873 128.12 16.1042C126.838 15.0228 126.197 13.4252 126.197 11.3102C126.197 9.31225 126.847 7.73575 128.144 6.57925C129.443 5.42275 131.032 4.84375 132.913 4.84375C134.81 4.84375 136.3 5.40925 137.381 6.54175L135.385 8.81425C134.752 8.33125 133.978 8.08975 133.063 8.08975C132.13 8.08975 131.356 8.37625 130.741 8.95075C130.124 9.52525 129.817 10.3112 129.817 11.3102C129.817 12.2582 130.124 13.0127 130.741 13.5692C131.356 14.1272 132.106 14.4062 132.988 14.4062C133.42 14.4062 133.874 14.3237 134.348 14.1572C134.822 13.9892 135.202 13.7657 135.484 13.4822Z" fill="#1A1A2E"/>
<path d="M147.077 11.298C148.86 9.83846 150 7.62296 150 5.14347H146.405C146.405 7.23746 144.918 8.99096 142.947 9.40646V0.00146484H139.352V17.4525H142.947V13.1895C144.92 13.605 146.405 15.3585 146.405 17.4525H150C150 14.973 148.86 12.756 147.077 11.298Z" fill="#1A1A2E"/>
<path d="M40.892 15.4037C42.6065 14.5217 43.4885 13.0817 43.538 11.0837C43.5815 9.95867 43.259 8.91017 42.5705 7.93817H43.541V4.74316H36.9365V4.74617C35.1155 4.75817 33.5615 5.30567 32.279 6.39167C30.98 7.48967 30.332 9.03767 30.332 11.0357C30.332 12.9332 30.935 14.4437 32.1425 15.5672C33.3485 16.6907 34.967 17.2517 36.998 17.2517C38.9945 17.2517 39.9935 17.9582 39.9935 19.3742C39.9935 20.1062 39.698 20.6687 39.107 21.0602C38.516 21.4517 37.796 21.6467 36.947 21.6467C35 21.6467 33.968 20.8142 33.851 19.1507H30.506C30.473 20.9477 31.0085 22.3412 32.1155 23.3327C33.2225 24.3227 34.832 24.8177 36.947 24.8177C38.777 24.8177 40.3505 24.3437 41.666 23.3942C42.98 22.4462 43.6385 21.1052 43.6385 19.3742C43.637 17.5427 42.722 16.2197 40.892 15.4037ZM39.194 13.2077C38.594 13.7237 37.862 13.9817 36.9965 13.9817C36.0815 13.9817 35.3195 13.7117 34.712 13.1702C34.1045 12.6302 33.8015 11.9177 33.8015 11.0357C33.8015 10.0697 34.097 9.31217 34.688 8.76317C35.279 8.21417 36.0485 7.93966 36.998 7.93966C37.88 7.93966 38.6165 8.23967 39.2075 8.83817C39.7985 9.43667 40.094 10.1702 40.094 11.0357C40.0925 11.9672 39.7925 12.6917 39.194 13.2077Z" fill="#1A1A2E"/>
<path d="M10.11 10.11C4.5345 10.11 0 5.574 0 0H4.902C4.902 2.8725 7.239 5.208 10.11 5.208C12.9825 5.208 15.318 2.871 15.318 0H20.22C20.22 5.5755 15.6855 10.11 10.11 10.11Z" fill="#8B4AFF"/>
<path d="M20.22 12.561H0V17.463H20.22V12.561Z" fill="#8B4AFF"/>
<path d="M20.22 19.9141H0V24.8161H20.22V19.9141Z" fill="#8B4AFF"/>
</g>
<defs>
<clipPath id="clip0_474_2790">
<rect width="150" height="24.8175" fill="#1A1A2E"/>
</clipPath>
</defs>
</svg>
